<?xml version="1.0" standalone="no"?>
<!DOCTYPE svg PUBLIC "-//W3C//DTD SVG 20010904//EN"
 "http://www.w3.org/TR/2001/REC-SVG-20010904/DTD/svg10.dtd">
<svg version="1.0" xmlns="http://www.w3.org/2000/svg"
 width="200" height="100" viewBox="0 0 1000.000000 526.000000"
 preserveAspectRatio="xMidYMid meet">

<g transform="translate(0.000000,526.000000) scale(0.100000,-0.100000)"
fill="#000000" stroke="none">
<path d="M4960 4170 c0 -627 3 -950 10 -950 7 0 10 323 10 950 0 627 -3 950
-10 950 -7 0 -10 -323 -10 -950z"/>
<path d="M1760 4270 c0 -5 14 -10 30 -10 17 0 30 -4 30 -10 0 -5 14 -10 30
-10 17 0 30 -4 30 -10 0 -5 7 -10 15 -10 20 0 65 -45 65 -65 0 -8 5 -15 10
-15 6 0 10 -9 10 -20 0 -11 5 -20 10 -20 6 0 10 -18 10 -40 0 -22 5 -40 10
-40 6 0 10 -40 10 -100 0 -60 4 -100 10 -100 6 0 10 -107 10 -300 l0 -300 130
0 130 0 0 370 c0 240 4 370 10 370 6 0 10 23 10 50 0 28 5 50 10 50 6 0 10 14
10 30 0 17 5 30 10 30 6 0 10 7 10 15 0 26 86 105 115 105 14 0 25 5 25 10 0
6 14 10 30 10 17 0 30 5 30 10 0 7 -140 10 -400 10 -260 0 -400 -3 -400 -10z"/>
<path d="M3620 4270 c0 -5 14 -10 30 -10 17 0 30 -4 30 -10 0 -5 11 -10 25
-10 29 0 115 -79 115 -105 0 -8 5 -15 10 -15 6 0 10 -13 10 -30 0 -16 5 -30
10 -30 6 0 10 -27 10 -60 0 -33 4 -60 10 -60 6 0 10 -127 10 -360 0 -353 0
-360 20 -360 20 0 20 7 20 440 0 287 3 440 10 440 6 0 10 -8 10 -18 0 -10 9
-24 20 -32 11 -8 20 -21 20 -30 0 -9 9 -22 20 -30 11 -8 20 -21 20 -30 0 -9 9
-22 20 -30 11 -8 20 -21 20 -30 0 -9 9 -22 20 -30 11 -8 20 -21 20 -30 0 -9 9
-22 20 -30 11 -8 20 -21 20 -30 0 -9 9 -22 20 -30 11 -8 20 -21 20 -30 0 -9 9
-22 20 -30 11 -8 20 -21 20 -30 0 -9 9 -22 20 -30 11 -8 20 -21 20 -30 0 -9 9
-22 20 -30 11 -8 20 -22 20 -32 0 -10 5 -18 10 -18 6 0 10 -8 10 -18 0 -10 9
-24 20 -32 11 -8 20 -21 20 -30 0 -9 9 -22 20 -30 11 -8 20 -21 20 -30 0 -9 9
-22 20 -30 11 -8 20 -21 20 -30 0 -9 9 -22 20 -30 11 -8 20 -20 20 -28 0 -36
25 -42 184 -42 143 0 156 1 156 18 0 10 -9 24 -20 32 -11 8 -20 21 -20 30 0 9
-9 22 -20 30 -11 8 -20 21 -20 30 0 9 -9 22 -20 30 -11 8 -20 21 -20 30 0 9
-9 22 -20 30 -11 8 -20 22 -20 32 0 10 -4 18 -10 18 -5 0 -10 8 -10 18 0 10
-9 24 -20 32 -11 8 -20 21 -20 30 0 9 -9 22 -20 30 -11 8 -20 21 -20 30 0 9
-9 22 -20 30 -11 8 -20 21 -20 30 0 9 -9 22 -20 30 -11 8 -20 21 -20 30 0 9
-9 22 -20 30 -11 8 -20 21 -20 30 0 9 -9 22 -20 30 -11 8 -20 21 -20 30 0 9
-9 22 -20 30 -11 8 -20 21 -20 30 0 9 -9 22 -20 30 -11 8 -20 21 -20 30 0 9
-9 22 -20 30 -11 8 -20 21 -20 30 0 9 -9 22 -20 30 -11 8 -20 22 -20 32 0 10
-4 18 -10 18 -5 0 -10 8 -10 18 0 10 -9 24 -20 32 -11 8 -20 20 -20 28 0 7
-11 24 -25 37 l-24 25 -256 0 c-163 0 -255 -4 -255 -10z"/>
<path d="M5300 4270 c0 -5 14 -10 30 -10 17 0 30 -4 30 -10 0 -5 13 -10 28
-10 16 0 34 -8 42 -20 8 -11 20 -20 27 -20 17 0 123 -106 123 -123 0 -7 9 -19
20 -27 11 -8 20 -22 20 -32 0 -10 5 -18 10 -18 6 0 10 -9 10 -20 0 -11 5 -20
10 -20 6 0 10 -13 10 -30 0 -16 5 -30 10 -30 6 0 10 -13 10 -30 0 -16 5 -30
10 -30 6 0 10 -13 10 -30 0 -16 5 -30 10 -30 6 0 10 -18 10 -40 0 -22 5 -40
10 -40 6 0 10 -22 10 -50 0 -27 5 -50 10 -50 6 0 10 -27 10 -60 0 -33 4 -60
10 -60 6 0 10 -50 10 -130 0 -123 1 -130 20 -130 20 0 20 7 20 280 0 180 4
280 10 280 6 0 10 43 10 110 0 67 4 110 10 110 6 0 10 23 10 50 0 28 5 50 10
50 6 0 10 9 10 20 0 11 5 20 10 20 6 0 10 7 10 15 0 20 45 65 65 65 8 0 15 5
15 10 0 6 14 10 30 10 17 0 30 5 30 10 0 6 14 10 30 10 17 0 30 5 30 10 0 7
-140 10 -400 10 -260 0 -400 -3 -400 -10z"/>
<path d="M7140 4080 c0 -110 3 -200 6 -200 16 0 34 32 34 59 0 25 13 44 65 96
35 36 71 65 80 65 8 0 15 5 15 10 0 6 9 10 20 10 11 0 20 5 20 10 0 6 9 10 20
10 11 0 20 5 20 10 0 6 14 10 30 10 17 0 30 5 30 10 0 6 14 10 30 10 17 0 30
5 30 10 0 6 18 10 40 10 22 0 40 5 40 10 0 6 23 10 50 10 28 0 50 5 50 10 0 6
37 10 90 10 53 0 90 4 90 10 0 6 33 10 80 10 l80 0 0 -520 0 -520 120 0 120 0
0 520 0 520 80 0 c47 0 80 -4 80 -10 0 -6 37 -10 90 -10 53 0 90 -4 90 -10 0
-5 23 -10 50 -10 28 0 50 -4 50 -10 0 -5 18 -10 40 -10 22 0 40 -4 40 -10 0
-5 14 -10 30 -10 17 0 30 -4 30 -10 0 -5 14 -10 30 -10 17 0 30 -4 30 -10 0
-5 9 -10 20 -10 11 0 20 -4 20 -10 0 -5 9 -10 20 -10 11 0 20 -4 20 -10 0 -5
7 -10 16 -10 9 0 29 -13 44 -30 15 -16 35 -30 44 -30 9 0 16 -8 16 -18 0 -10
9 -24 20 -32 13 -9 20 -26 20 -48 0 -29 18 -62 34 -62 3 0 6 90 6 200 l0 200
-1040 0 -1040 0 0 -200z"/>
<path d="M3400 2950 c0 -5 -16 -10 -36 -10 -38 0 -64 -18 -64 -44 0 -9 -4 -16
-10 -16 -5 0 -10 -9 -10 -20 0 -11 5 -20 10 -20 6 0 10 -7 10 -16 0 -23 25
-44 54 -44 14 0 26 -4 26 -10 0 -5 16 -10 36 -10 45 0 64 -19 64 -64 0 -33 -2
-36 -30 -36 -16 0 -30 -4 -30 -10 0 -5 -9 -10 -20 -10 -11 0 -20 5 -20 10 0 6
-13 10 -30 10 -16 0 -30 5 -30 10 0 6 -9 10 -20 10 -13 0 -20 -7 -20 -20 0
-13 7 -20 20 -20 11 0 20 -4 20 -10 0 -6 30 -10 70 -10 40 0 70 4 70 10 0 6 7
10 16 10 47 0 60 75 19 115 -13 14 -31 25 -40 25 -8 0 -15 5 -15 10 0 6 -16
10 -35 10 -25 0 -44 8 -60 25 -31 30 -34 75 -5 75 11 0 20 5 20 10 0 6 23 10
50 10 28 0 50 -4 50 -10 0 -5 9 -10 20 -10 13 0 20 7 20 20 0 17 -7 20 -40 20
-22 0 -40 5 -40 10 0 6 -4 10 -10 10 -5 0 -10 -4 -10 -10z"/>
<path d="M5580 2950 c0 -5 -11 -10 -25 -10 -17 0 -41 -15 -70 -45 -45 -44 -45
-45 -45 -115 0 -67 2 -72 35 -105 19 -19 41 -35 50 -35 8 0 15 -4 15 -10 0 -6
28 -10 65 -10 57 0 69 3 90 25 30 29 31 35 5 35 -11 0 -20 -4 -20 -10 0 -5
-13 -10 -29 -10 -16 0 -32 -6 -35 -12 -5 -10 -7 -10 -12 0 -3 6 -19 12 -35 12
-16 0 -29 5 -29 10 0 6 -9 10 -20 10 -13 0 -20 7 -20 20 0 11 -4 20 -10 20 -6
0 -10 28 -10 65 0 57 3 69 25 90 13 14 31 25 40 25 8 0 15 5 15 10 0 6 23 10
50 10 28 0 50 -4 50 -10 0 -5 9 -10 20 -10 11 0 20 -4 20 -10 0 -5 5 -10 10
-10 15 0 12 29 -4 46 -8 8 -31 14 -50 14 -20 0 -36 5 -36 10 0 6 -9 10 -20 10
-11 0 -20 -4 -20 -10z"/>
<path d="M6500 2950 c0 -5 -16 -10 -36 -10 -50 0 -64 -18 -64 -84 0 -49 2 -56
20 -56 11 0 20 -4 20 -10 0 -5 14 -10 30 -10 17 0 30 -4 30 -10 0 -5 12 -10
26 -10 35 0 54 -22 54 -64 0 -29 -4 -36 -20 -36 -11 0 -20 -4 -20 -10 0 -5
-13 -10 -30 -10 -16 0 -30 5 -30 10 0 6 -13 10 -30 10 -16 0 -30 5 -30 10 0 6
-9 10 -20 10 -26 0 -25 -6 5 -35 21 -22 33 -25 95 -25 62 0 74 3 95 25 19 18
25 35 25 65 0 48 -17 70 -54 70 -14 0 -26 5 -26 10 0 6 -13 10 -30 10 -16 0
-30 5 -30 10 0 6 -7 10 -16 10 -18 0 -44 23 -44 40 0 6 11 22 25 35 18 19 35
25 70 25 25 0 45 -4 45 -10 0 -5 9 -10 20 -10 13 0 20 7 20 20 0 17 -7 20 -40
20 -22 0 -40 5 -40 10 0 6 -4 10 -10 10 -5 0 -10 -4 -10 -10z"/>
<path d="M3740 2780 l0 -160 120 0 c113 0 120 1 120 20 0 19 -7 20 -100 20
l-100 0 0 46 c0 64 14 74 104 74 44 0 76 4 76 10 0 6 -37 10 -90 10 l-90 0 0
60 0 60 100 0 c60 0 100 4 100 10 0 6 -47 10 -120 10 l-120 0 0 -160z"/>
<path d="M4200 2780 c0 -153 1 -160 20 -160 17 0 20 7 20 50 l0 50 55 0 c46 0
60 -4 80 -25 14 -13 25 -29 25 -35 0 -17 26 -40 44 -40 9 0 16 5 16 10 0 6 -4
10 -10 10 -5 0 -10 8 -10 18 0 10 -9 24 -20 32 -28 20 -25 37 10 70 26 24 30
35 30 79 0 42 -5 57 -25 76 -23 23 -31 25 -130 25 l-105 0 0 -160z m195 115
c19 -18 25 -35 25 -65 0 -60 -15 -70 -104 -70 l-76 0 0 80 0 80 65 0 c57 0 69
-3 90 -25z"/>
<path d="M4660 2920 c0 -11 5 -20 10 -20 6 0 10 -13 10 -30 0 -16 5 -30 10
-30 6 0 10 -9 10 -20 0 -11 5 -20 10 -20 6 0 10 -9 10 -20 0 -11 5 -20 10 -20
6 0 10 -9 10 -20 0 -11 5 -20 10 -20 6 0 10 -13 10 -30 0 -16 5 -30 10 -30 6
0 10 -9 10 -20 0 -16 7 -20 30 -20 27 0 30 3 30 30 0 17 5 30 10 30 6 0 10 9
10 20 0 11 5 20 10 20 6 0 10 9 10 20 0 11 5 20 10 20 6 0 10 9 10 20 0 11 5
20 10 20 6 0 10 14 10 30 0 17 5 30 10 30 6 0 10 9 10 20 0 11 5 20 10 20 6 0
10 9 10 20 0 13 -7 20 -20 20 -13 0 -20 -7 -20 -20 0 -11 -4 -20 -10 -20 -5 0
-10 -13 -10 -30 0 -16 -4 -30 -10 -30 -5 0 -10 -9 -10 -20 0 -11 -4 -20 -10
-20 -5 0 -10 -9 -10 -20 0 -11 -4 -20 -10 -20 -5 0 -10 -9 -10 -20 0 -11 -4
-20 -10 -20 -5 0 -10 -9 -10 -20 0 -11 -3 -20 -6 -20 -14 0 -34 31 -34 54 0
14 -4 26 -10 26 -5 0 -10 9 -10 20 0 11 -4 20 -10 20 -5 0 -10 9 -10 20 0 11
-4 20 -10 20 -5 0 -10 9 -10 20 0 11 -4 20 -10 20 -5 0 -10 14 -10 30 0 23 -4
30 -20 30 -13 0 -20 -7 -20 -20z"/>
<path d="M5180 2780 c0 -100 4 -160 10 -160 6 0 10 60 10 160 0 100 -4 160
-10 160 -6 0 -10 -60 -10 -160z"/>
<path d="M5940 2780 l0 -160 120 0 c113 0 120 1 120 20 0 19 -7 20 -100 20
l-100 0 0 46 c0 64 14 74 104 74 44 0 76 4 76 10 0 6 -37 10 -90 10 l-90 0 0
60 0 60 100 0 c60 0 100 4 100 10 0 6 -47 10 -120 10 l-120 0 0 -160z"/>
<path d="M2040 2100 c0 -193 -4 -300 -10 -300 -6 0 -10 -40 -10 -100 0 -60 -4
-100 -10 -100 -5 0 -10 -18 -10 -40 0 -22 -4 -40 -10 -40 -5 0 -10 -13 -10
-28 0 -16 -8 -34 -20 -42 -11 -8 -20 -22 -20 -32 0 -11 -7 -18 -18 -18 -10 0
-24 -9 -32 -20 -11 -15 -26 -20 -58 -20 -38 0 -72 -16 -72 -34 0 -3 180 -6
400 -6 393 0 400 0 400 20 0 17 -7 20 -50 20 -27 0 -50 5 -50 10 0 6 -7 10
-15 10 -20 0 -85 65 -85 85 0 8 -4 15 -10 15 -5 0 -10 14 -10 30 0 17 -4 30
-10 30 -6 0 -10 27 -10 60 0 33 -4 60 -10 60 -6 0 -10 130 -10 370 l0 370
-130 0 -130 0 0 -300z"/>
<path d="M3880 2030 c0 -240 -4 -370 -10 -370 -6 0 -10 -27 -10 -60 0 -33 -4
-60 -10 -60 -5 0 -10 -13 -10 -30 0 -16 -4 -30 -10 -30 -5 0 -10 -7 -10 -15 0
-20 -65 -85 -85 -85 -8 0 -15 -4 -15 -10 0 -5 -22 -10 -50 -10 -43 0 -50 -3
-50 -20 0 -20 7 -20 400 -20 220 0 400 3 400 6 0 16 -33 34 -64 34 -20 0 -36
5 -36 10 0 6 -9 10 -20 10 -11 0 -20 5 -20 10 0 6 -7 10 -15 10 -20 0 -145
125 -145 145 0 8 -4 15 -10 15 -5 0 -10 9 -10 20 0 11 -4 20 -10 20 -5 0 -10
9 -10 20 0 11 -4 20 -10 20 -5 0 -10 9 -10 20 0 11 -4 20 -10 20 -5 0 -10 14
-10 30 0 17 -4 30 -10 30 -5 0 -10 14 -10 30 0 17 -4 30 -10 30 -5 0 -10 14
-10 30 0 17 -4 30 -10 30 -5 0 -10 23 -10 50 0 28 -4 50 -10 50 -6 0 -10 27
-10 60 0 33 -4 60 -10 60 -6 0 -10 33 -10 80 0 47 -4 80 -10 80 -6 0 -10 33
-10 80 0 73 -2 80 -20 80 -20 0 -20 -7 -20 -370z"/>
<path d="M4960 1280 c0 -740 3 -1120 10 -1120 7 0 10 380 10 1120 0 740 -3
1120 -10 1120 -7 0 -10 -380 -10 -1120z"/>
<path d="M5060 2382 c0 -10 9 -24 20 -32 11 -8 20 -21 20 -30 0 -9 9 -22 20
-30 11 -8 20 -21 20 -30 0 -9 9 -22 20 -30 11 -8 20 -22 20 -32 0 -10 5 -18
10 -18 6 0 10 -8 10 -18 0 -10 9 -24 20 -32 11 -8 20 -21 20 -30 0 -9 9 -22
20 -30 11 -8 20 -21 20 -30 0 -9 9 -22 20 -30 11 -8 20 -21 20 -30 0 -9 9 -22
20 -30 11 -8 20 -21 20 -30 0 -9 9 -22 20 -30 11 -8 20 -21 20 -30 0 -9 9 -22
20 -30 11 -8 20 -21 20 -30 0 -9 9 -22 20 -30 11 -8 20 -21 20 -30 0 -9 9 -22
20 -30 11 -8 20 -21 20 -30 0 -9 9 -22 20 -30 11 -8 20 -21 20 -30 0 -9 9 -22
20 -30 11 -8 20 -22 20 -32 0 -10 5 -18 10 -18 6 0 10 -8 10 -18 0 -10 9 -24
20 -32 11 -8 20 -21 20 -30 0 -9 9 -22 20 -30 11 -8 20 -21 20 -30 0 -9 9 -22
20 -30 11 -8 20 -21 20 -30 0 -9 9 -22 20 -30 11 -8 20 -22 20 -32 0 -11 7
-18 20 -18 20 0 20 7 20 570 0 373 -3 570 -10 570 -6 0 -10 -110 -10 -310 0
-170 -2 -310 -5 -310 -12 0 -55 50 -55 62 0 8 -9 20 -20 28 -11 8 -20 21 -20
30 0 9 -9 22 -20 30 -11 8 -20 21 -20 30 0 9 -9 22 -20 30 -11 8 -20 21 -20
30 0 9 -9 22 -20 30 -11 8 -20 21 -20 30 0 9 -9 22 -20 30 -11 8 -20 21 -20
30 0 9 -9 22 -20 30 -11 8 -20 21 -20 30 0 9 -9 22 -20 30 -11 8 -20 22 -20
32 0 10 -4 18 -10 18 -5 0 -10 8 -10 18 0 10 -9 24 -20 32 -11 8 -20 20 -20
28 0 36 -25 42 -184 42 -143 0 -156 -1 -156 -18z"/>
<path d="M8060 2120 c0 -180 -4 -280 -10 -280 -6 0 -10 -47 -10 -120 0 -73 -4
-120 -10 -120 -5 0 -10 -18 -10 -40 0 -22 -4 -40 -10 -40 -5 0 -10 -13 -10
-28 0 -16 -8 -34 -20 -42 -11 -8 -20 -22 -20 -32 0 -11 -7 -18 -18 -18 -10 0
-24 -9 -32 -20 -12 -16 -26 -20 -72 -20 -51 0 -58 -2 -58 -20 0 -20 7 -20 390
-20 215 0 390 3 390 6 0 17 -34 34 -70 34 -35 0 -47 6 -85 45 -25 24 -45 51
-45 60 0 8 -4 15 -10 15 -5 0 -10 18 -10 40 0 22 -4 40 -10 40 -6 0 -10 47
-10 120 0 73 -4 120 -10 120 -6 0 -10 107 -10 300 l0 300 -120 0 -120 0 0
-280z"/>
</g>
</svg>
